<svg xmlns="http://www.w3.org/2000/svg" width="713" height="350" viewBox="0 0 713 350" version="1.1"><path d="M 123.206 58.984 C 114.995 60.237, 106.611 66.635, 101.726 75.375 C 99.078 80.113, 95.416 91.297, 93.839 99.466 C 90.841 114.997, 88.312 132.481, 88.794 134.351 C 89.568 137.357, 91.944 138.931, 95.764 138.968 C 99.121 139.001, 100.788 138.301, 107.254 134.138 C 111.002 131.726, 115.749 125.415, 114.645 124.312 C 113.893 123.560, 110.127 126.037, 106.974 129.359 C 105.433 130.983, 103.409 131.972, 101.605 131.983 C 98.711 132, 98.711 132, 99.302 125.668 C 99.627 122.185, 100.561 116.447, 101.377 112.918 C 102.192 109.388, 103.842 101.550, 105.043 95.500 C 108.657 77.298, 112.683 67.377, 117.313 65.267 C 119.879 64.098, 127.496 64.167, 130.155 65.384 C 131.295 65.906, 132.851 65.211, 135.155 63.153 C 136.994 61.510, 138.274 59.945, 137.999 59.676 C 136.925 58.624, 128.232 58.217, 123.206 58.984 M 663 59.020 C 654.768 60.457, 648.324 65.329, 642.395 74.597 C 638.702 80.370, 633.018 99.432, 633.006 106.083 C 633.003 108.054, 632.663 110.004, 632.250 110.417 C 631.837 110.829, 631.473 111.467, 631.440 111.833 C 631.408 112.200, 630.805 115.200, 630.102 118.500 C 629.399 121.800, 628.374 126.750, 627.825 129.500 C 627.275 132.250, 626.621 135.251, 626.371 136.169 C 625.785 138.320, 628.825 139.311, 633.382 138.456 C 636.808 137.813, 636.867 137.715, 638.053 130.653 C 638.713 126.719, 639.632 122.496, 640.094 121.269 C 641.052 118.730, 643.276 119.097, 644.623 122.017 C 646.115 125.251, 656.170 136.037, 659.111 137.558 C 663.006 139.571, 666.134 139.361, 671.011 136.758 C 675.369 134.432, 680 130.365, 680 128.864 C 680 127.548, 677.730 127.890, 675.559 129.532 C 674.491 130.339, 671.927 131, 669.859 131 C 666.793 131, 665.295 130.218, 661.716 126.750 C 656.965 122.146, 653 116.844, 653 115.096 C 653 114.493, 654.140 114, 655.533 114 C 658.563 114, 666.565 110.061, 669.860 106.947 C 672.884 104.090, 675 99.008, 675 94.605 C 675 90.290, 671.261 87, 666.358 87 C 661.712 87, 653.679 91.566, 648.405 97.205 C 645.982 99.795, 644.001 101.821, 644.001 101.707 C 644.007 100.725, 647.113 86.027, 648.515 80.345 C 649.810 75.099, 651.259 72.055, 653.948 68.933 C 657.325 65.012, 658.042 64.654, 663.012 64.403 C 665.981 64.253, 669.076 64.503, 669.891 64.959 C 673.055 66.730, 679.851 60.788, 676.842 58.881 C 675.247 57.870, 669.245 57.931, 663 59.020 M 142.900 68.152 C 136.746 72.560, 132.742 77.142, 133.970 78.370 C 135.886 80.286, 145.153 74.404, 147.439 69.822 C 150.351 63.984, 149.272 63.587, 142.900 68.152 M 273.933 69.352 C 272.522 70.088, 270.262 70.968, 268.913 71.307 C 266.367 71.946, 260.794 76.869, 258.279 80.701 C 257.484 81.912, 256.621 85.062, 256.361 87.701 C 255.752 93.882, 258.497 98.148, 270.955 110.383 C 280.845 120.095, 281.519 121.747, 278.325 128.444 C 276.996 131.231, 275.642 132.290, 271.760 133.580 C 266.097 135.461, 260.518 134.543, 253.333 130.550 C 249.166 128.234, 249.166 128.234, 245.885 131.619 C 242.107 135.517, 242.400 136.012, 249.865 138.332 C 263.611 142.605, 279.263 137.692, 286.340 126.883 C 291.073 119.655, 289.230 111.622, 281.152 104.264 C 279.143 102.434, 274.913 98.408, 271.750 95.317 C 266.191 89.884, 266 89.522, 266 84.437 C 266 79.810, 266.364 78.872, 269.029 76.629 C 273.197 73.122, 278.064 72.371, 283.403 74.410 C 286.916 75.751, 288.017 76.816, 289.318 80.127 C 290.203 82.381, 291.452 84.016, 292.119 83.794 C 293.422 83.359, 296.337 74.510, 295.753 72.760 C 295.242 71.225, 285.214 68.143, 280.500 68.072 C 278.300 68.039, 275.345 68.615, 273.933 69.352 M 57.113 73.197 C 55.470 74.955, 54.349 76.755, 54.622 77.197 C 54.895 77.639, 57.116 78, 59.559 78 C 63.908 78, 63.999 78.068, 63.976 81.250 C 63.962 83.037, 63.538 86.300, 63.034 88.500 C 61.928 93.319, 61.312 96.590, 60.020 104.500 C 58.363 114.639, 55.458 124.836, 53.661 126.822 C 52.720 127.862, 49.611 129.468, 46.753 130.391 C 41.981 131.932, 37 135.337, 37 137.059 C 37 137.980, 45.212 138.885, 56.286 139.183 C 65.056 139.420, 65.078 139.414, 68.786 135.960 C 72.500 132.500, 72.500 132.500, 64.678 131.500 C 56.856 130.500, 56.856 130.500, 59.969 127.524 C 66.420 121.356, 68.811 114.670, 74.529 86.818 C 76.040 79.458, 76.240 79.106, 79.288 78.437 C 82.578 77.714, 86.949 75.313, 88.235 73.523 C 90.493 70.379, 89.022 70, 74.551 70 C 60.101 70, 60.101 70, 57.113 73.197 M 390.336 87.961 C 384.845 90.419, 382.715 92.359, 376.838 100.250 C 374.073 103.963, 371.618 107, 371.382 107 C 371.146 107, 371.248 103.460, 371.609 99.133 C 372.217 91.844, 372.100 91.100, 370.013 89.013 C 368.104 87.104, 367.077 86.855, 363.268 87.377 C 358.307 88.057, 351.762 92.299, 348.842 96.726 C 345.662 101.549, 346.732 102.459, 351.250 98.776 C 355.318 95.460, 359.229 93, 360.434 93 C 361.408 93, 361.051 106.339, 359.979 110.007 C 357.533 118.380, 354.050 137.450, 354.826 138.226 C 355.293 138.693, 357.584 138.770, 359.916 138.397 C 364.640 137.642, 365.355 136.565, 366.547 128.409 C 367.220 123.811, 369.765 117.989, 373.777 111.872 C 374.724 110.427, 376.362 107.952, 377.415 106.372 C 380.581 101.625, 388.783 94.703, 390.474 95.352 C 392.411 96.095, 392.441 100.516, 390.561 108.436 C 386.615 125.064, 385 133.031, 385 135.874 C 385 138.563, 385.359 139, 387.566 139 C 388.977 139, 391.003 138.534, 392.067 137.964 C 394.253 136.794, 397 130.933, 397 127.438 C 397 123.072, 406.136 106.986, 412.151 100.763 C 419.642 93.011, 421.606 93.179, 421.235 101.536 C 421.089 104.816, 420.011 111.325, 418.840 116 C 417.668 120.675, 416.667 127.071, 416.615 130.214 C 416.505 136.874, 418.239 138.916, 424.046 138.968 C 428.348 139.007, 437.231 133.714, 440.055 129.430 C 443.578 124.086, 442.151 123.442, 437.071 128.083 C 433.193 131.624, 429.067 133.467, 427.816 132.216 C 427.083 131.483, 428.727 118.131, 430.553 110 C 431.797 104.457, 432.729 94.678, 432.203 92.669 C 430.782 87.235, 424.646 85.609, 418.120 88.939 C 414.259 90.909, 404.016 101.568, 404.006 103.628 C 404.003 104.248, 403.424 105.233, 402.721 105.817 C 401.697 106.666, 401.518 105.517, 401.826 100.070 C 402.260 92.393, 401.254 89.700, 397.163 87.584 C 394.689 86.305, 393.943 86.346, 390.336 87.961 M 136 88.754 C 125.661 92.231, 120.493 94.679, 120.192 96.243 C 119.932 97.591, 120.660 97.856, 124.187 97.696 C 128.500 97.500, 128.500 97.500, 128.560 103 C 128.593 106.025, 127.996 110.300, 127.232 112.500 C 126.469 114.700, 125.594 120.795, 125.288 126.044 C 124.652 136.960, 125.622 139, 131.449 139 C 137.304 139, 143.025 135.708, 147.759 129.615 C 152.110 124.014, 149.469 123.174, 144.042 128.433 C 140.014 132.336, 135.323 134.005, 134.489 131.831 C 134.009 130.581, 135.433 123.221, 141.034 98 C 143.808 85.507, 144.094 86.032, 136 88.754 M 188 87.756 C 183.135 88.112, 176.996 90.033, 173.846 92.186 C 172.386 93.184, 170.967 94, 170.692 94 C 170.417 94, 168.539 95.463, 166.519 97.250 C 158.806 104.073, 153 117.403, 153 128.287 C 153 137.294, 160.866 141.674, 169.300 137.365 C 171.060 136.465, 172.860 135.115, 173.300 134.365 C 173.740 133.614, 174.752 133, 175.550 133 C 176.347 133, 177 132.619, 177 132.153 C 177 131.687, 177.958 130.225, 179.128 128.903 C 180.299 127.581, 182.601 124.340, 184.245 121.700 C 185.888 119.060, 187.340 117.035, 187.471 117.200 C 187.602 117.365, 187.288 121.474, 186.773 126.331 C 185.945 134.137, 186.038 135.384, 187.573 137.081 C 191.245 141.138, 199.639 138.871, 207.274 131.761 C 214.619 124.921, 213.184 122.150, 205.541 128.413 C 201.549 131.684, 199.995 132.379, 197.250 132.118 C 195.489 131.952, 195.692 127.937, 197.962 118.048 C 203.128 95.545, 204.200 89.804, 203.379 89.042 C 202.391 88.124, 193.327 87.366, 188 87.756 M 321.272 89.509 C 314.772 92.801, 307.598 100.623, 303.853 108.500 C 301.617 113.204, 301.001 115.917, 301.001 121.062 C 300.999 136.123, 309.349 142.059, 324.200 137.552 C 328.893 136.128, 339.183 130.131, 340.449 128.083 C 342.165 125.306, 339.462 125.508, 333.756 128.583 C 328.811 131.248, 326.328 131.959, 321.905 131.977 C 315.503 132.003, 313.543 130.550, 311.886 124.550 C 310.562 119.756, 311.694 118.436, 317.758 117.705 C 327.216 116.564, 337.215 110.042, 339.947 103.231 C 341.634 99.025, 340.745 92.300, 338.159 89.714 C 334.869 86.425, 327.539 86.336, 321.272 89.509 M 467.500 89.388 C 459.531 93.163, 454.163 98.880, 448.898 109.200 C 447.211 112.506, 446.833 115.006, 446.912 122.332 C 446.997 130.253, 447.289 131.680, 449.254 133.785 C 455.628 140.610, 465.070 140.695, 477.843 134.041 C 481.921 131.916, 487 127.434, 487 125.960 C 487 124.726, 484.299 124.708, 483.539 125.937 C 482.050 128.346, 471.913 132, 466.717 132 C 460.494 132, 458.791 130.680, 457.129 124.566 C 455.751 119.498, 456.947 118, 462.372 117.999 C 464.859 117.999, 468.961 116.834, 472.688 115.071 C 485.826 108.856, 491.098 94.033, 482.067 88.699 C 478.114 86.363, 473.416 86.586, 467.500 89.388 M 503.241 89.567 C 497.898 92.230, 492 97.984, 492 100.535 C 492 102.702, 492.851 102.367, 497.104 98.525 C 500.720 95.259, 505.465 93.131, 506.601 94.268 C 507.682 95.349, 503.563 120.284, 500.120 133.506 C 499.068 137.543, 499.704 139, 502.518 139 C 507.787 139, 509.438 137.505, 510.837 131.466 C 511.572 128.292, 512.547 124.976, 513.003 124.097 C 513.460 123.219, 514.399 120.981, 515.090 119.125 C 516.623 115.006, 523.784 105.009, 529.326 99.250 C 536.518 91.777, 540.222 94.565, 537.476 105.384 C 531.050 130.700, 531.629 139, 539.820 139 C 545.608 139, 554.845 133.133, 557.677 127.657 C 559.916 123.328, 558.605 123.374, 553.308 127.808 C 547.063 133.036, 542.851 133.868, 543.472 129.750 C 543.658 128.512, 544.102 125.025, 544.458 122 C 544.814 118.975, 545.779 113.877, 546.601 110.671 C 548.721 102.403, 548.627 91.350, 546.415 88.906 C 542.949 85.076, 534.321 87.468, 527.176 94.240 C 525.285 96.033, 521.934 100.200, 519.729 103.500 C 517.524 106.800, 516.045 108.600, 516.442 107.500 C 516.838 106.400, 517.411 102.298, 517.716 98.384 C 518.209 92.036, 518.038 91.038, 516.134 89.134 C 513.313 86.313, 509.515 86.441, 503.241 89.567 M 569.900 89.343 C 563.242 92.721, 560.980 94.484, 559.401 97.528 C 557.677 100.851, 557.675 101, 559.345 101 C 560.085 101, 561.546 100.054, 562.593 98.898 C 564.933 96.312, 569.267 94, 571.774 94 C 573.598 94, 573.602 94.313, 571.910 105.750 C 570.954 112.213, 569.652 119.549, 569.017 122.053 C 566.474 132.075, 569.291 139.003, 575.905 138.996 C 582.044 138.990, 588.098 134.409, 594.847 124.664 C 598.888 118.828, 598.888 118.828, 598.315 127.267 C 597.769 135.308, 597.853 135.784, 600.094 137.353 C 604.596 140.507, 610.277 139.169, 617.823 133.179 C 621.764 130.050, 624.753 125.420, 623.586 124.253 C 623.328 123.994, 620.953 125.567, 618.308 127.748 C 612.532 132.512, 610.517 133.327, 609.009 131.511 C 607.824 130.083, 608.176 127.429, 611.526 112.500 C 614.057 101.222, 616 90.971, 616 88.900 C 616 87.203, 615.499 87.052, 611.750 87.616 C 609.413 87.968, 607.198 88.536, 606.828 88.878 C 606.459 89.220, 605.064 93.630, 603.729 98.679 C 601.729 106.238, 600.303 109.244, 595.644 115.715 C 588.526 125.600, 583.313 131, 580.886 131 C 578.228 131, 578.392 125.778, 581.500 111.403 C 584.718 96.520, 584.789 90.666, 581.777 88.557 C 578.686 86.391, 575.272 86.617, 569.900 89.343 M 320.847 96.250 C 316.412 100.348, 313.414 105.591, 312.537 110.781 C 311.855 114.820, 311.855 114.820, 316.147 113.856 C 325.214 111.818, 331 106.252, 331 99.565 C 331 92.254, 326.692 90.848, 320.847 96.250 M 466.061 96.564 C 462.162 100.087, 458.744 105.915, 457.450 111.250 C 456.838 113.773, 457.023 114, 459.695 114 C 464.830 114, 472.612 109.363, 474.758 105.024 C 476.732 101.034, 476.897 99.144, 475.609 95.250 C 474.493 91.873, 470.671 92.399, 466.061 96.564 M 654.261 97.750 C 651.499 100.362, 647.608 104.862, 645.613 107.750 C 641.986 113, 641.986 113, 644.743 112.978 C 648.843 112.945, 656.003 109.374, 660.250 105.242 C 663.436 102.143, 664 100.947, 664 97.297 C 664 93.449, 663.754 93, 661.642 93 C 660.199 93, 657.332 94.845, 654.261 97.750 M 174.772 95.965 C 169.896 99.800, 164.552 113.225, 164.135 122.689 C 163.921 127.545, 165.428 132, 167.283 132 C 170.150 132, 184.856 115.157, 188.858 107.290 C 191.434 102.227, 191.731 95.495, 189.418 94.607 C 185.778 93.210, 177.272 93.998, 174.772 95.965 M 285.592 201.005 C 285.205 209.808, 285.165 217.458, 285.503 218.005 C 285.841 218.552, 288.566 219, 291.559 219 C 297 219, 297 219, 297 202 C 297 185, 297 185, 291.648 185 C 286.295 185, 286.295 185, 285.592 201.005 M 300.631 185.702 C 300.284 186.049, 300 193.683, 300 202.667 C 300 219, 300 219, 305.868 219 C 311.737 219, 311.737 219, 312.219 211.482 C 312.485 207.348, 312.959 203.707, 313.274 203.393 C 313.589 203.078, 315.793 204.221, 318.173 205.933 C 326.245 211.739, 336.197 217.958, 337.852 218.230 C 339.319 218.470, 339.530 216.659, 339.774 201.750 C 340.048 185, 340.048 185, 334.524 185 C 329 185, 329 185, 329 189.875 C 329 196.745, 327.971 201.203, 326.513 200.644 C 325.845 200.387, 320.844 197.279, 315.399 193.736 C 303.489 185.987, 301.454 184.879, 300.631 185.702 M 343 202.050 C 343 219.100, 343 219.100, 348.750 218.800 C 354.500 218.500, 354.500 218.500, 354.792 210.750 C 355.084 203, 355.084 203, 362.792 202.882 C 367.031 202.816, 371.099 202.844, 371.830 202.944 C 373.788 203.210, 378 200.182, 378 198.510 C 378 197.354, 375.769 197.009, 366.820 196.783 C 355.640 196.500, 355.640 196.500, 354.907 193.750 C 354.173 191, 354.173 191, 365.680 191 C 376.346 191, 377.225 190.854, 377.710 189 C 377.998 187.900, 378.743 186.993, 379.367 186.985 C 379.990 186.976, 379.825 186.533, 379 186 C 378.175 185.467, 369.738 185.024, 360.250 185.015 C 343 185, 343 185, 343 202.050 M 383.750 186.080 C 382.295 186.928, 382.001 188.565, 382.006 195.800 C 382.012 206.470, 383.201 211.020, 387.158 215.527 C 390.207 219, 390.207 219, 406.104 219 C 422 219, 422 219, 422 202 C 422 185, 422 185, 403.750 185.030 C 393.224 185.048, 384.759 185.492, 383.750 186.080 M 424.616 201.162 C 424.222 210.380, 424.309 217.709, 424.820 218.220 C 425.312 218.712, 428.141 218.976, 431.107 218.807 C 436.500 218.500, 436.500 218.500, 437 208.728 C 437.500 198.957, 437.500 198.957, 442 204.695 C 444.475 207.851, 448.245 212.361, 450.377 214.717 C 454.081 218.808, 454.511 219, 459.961 219 C 463.099 219, 465.951 218.716, 466.298 218.368 C 466.869 217.798, 458.846 207.467, 456.552 205.819 C 456.031 205.444, 456.931 204.844, 458.552 204.485 C 460.173 204.126, 462.063 203.660, 462.750 203.448 C 463.629 203.177, 464 200.384, 464 194.031 C 464 185, 464 185, 444.653 185 C 425.307 185, 425.307 185, 424.616 201.162 M 513.667 185.667 C 512.823 186.510, 512.788 211.691, 513.625 215.875 C 514.240 218.949, 514.345 219, 520.125 219 C 526 219, 526 219, 526 212.617 C 526 205.190, 526.153 205.083, 535.750 205.784 C 542 206.240, 542 206.240, 542 212.620 C 542 219, 542 219, 547.500 219 C 553 219, 553 219, 553 202 C 553 185, 553 185, 533.667 185 C 523.033 185, 514.033 185.300, 513.667 185.667 M 555.537 185.940 C 554.328 187.897, 559.276 191, 563.607 191 C 571.183 191, 571 190.639, 571 205.607 C 571 219, 571 219, 576.855 219 C 582.711 219, 582.711 219, 583.348 212.250 C 583.699 208.537, 583.989 202.238, 583.993 198.250 C 584 191, 584 191, 589.326 191 C 593.606 191, 595.080 190.544, 596.835 188.676 C 598.036 187.398, 598.714 186.048, 598.342 185.676 C 597.285 184.619, 556.197 184.873, 555.537 185.940 M 601.667 185.667 C 601.300 186.033, 601 193.683, 601 202.667 C 601 219, 601 219, 605.965 219 C 609.850 219, 611.155 218.579, 611.965 217.066 C 613.086 214.971, 613.394 193.221, 612.375 188.125 C 611.781 185.156, 611.515 185, 607.042 185 C 604.452 185, 602.033 185.300, 601.667 185.667 M 615.647 192.651 C 614.483 206.420, 614.622 207.238, 619.168 213.374 C 623.336 219, 623.336 219, 639.168 219 C 655 219, 655 219, 655 202 C 655 185, 655 185, 635.647 185 C 616.293 185, 616.293 185, 615.647 192.651 M 687 193 C 687 198.762, 686.648 201, 685.741 201 C 685.049 201, 679.762 197.937, 673.991 194.194 C 661.642 186.181, 660.367 185.602, 659.583 187.645 C 659.262 188.480, 659 195.877, 659 204.082 C 659 219, 659 219, 664 219 C 669 219, 669 219, 669.015 211.750 C 669.031 204.520, 670.254 200.419, 671.750 202.587 C 673.054 204.476, 693.863 218, 695.467 218 C 696.782 218, 697 215.659, 697 201.500 C 697 185, 697 185, 692 185 C 687 185, 687 185, 687 193 M 469.667 186.667 C 469.300 187.033, 469 194.458, 469 203.167 C 469 219, 469 219, 474 219 C 479 219, 479 219, 479 210.969 C 479 201.779, 480.071 200.490, 484.869 203.907 C 488.618 206.576, 491.333 206.553, 495.028 203.821 C 496.649 202.623, 498.246 201.913, 498.577 202.244 C 498.908 202.574, 499.428 206.480, 499.732 210.923 C 500.286 219, 500.286 219, 505.643 219 C 511 219, 511 219, 511 202.500 C 511 184.584, 510.793 184.015, 505.727 188 C 504.329 189.100, 502.804 190, 502.339 190 C 501.874 190, 499.278 191.575, 496.571 193.500 C 493.863 195.425, 490.960 197, 490.119 197 C 489.278 197, 484.686 194.525, 479.914 191.500 C 470.669 185.639, 470.686 185.647, 469.667 186.667 M 145.537 191.941 C 145.247 192.410, 145.296 195.537, 145.646 198.889 C 146.227 204.449, 146.709 205.427, 151.142 210.050 C 155.737 214.843, 156 215.413, 156 220.559 C 156 224.729, 155.650 226, 154.500 226 C 153.521 226, 153 225.019, 153 223.174 C 153 221.464, 152.027 219.435, 150.537 218.034 C 149.182 216.762, 148.169 214.789, 148.287 213.651 C 148.418 212.373, 147.831 211.443, 146.750 211.218 C 143.941 210.633, 144.618 214.495, 148 218.347 C 151.199 221.991, 151.991 226, 149.512 226 C 148.571 226, 148.111 225.187, 148.262 223.791 C 148.415 222.368, 147.878 221.452, 146.750 221.218 C 145.384 220.933, 145 221.528, 145 223.927 C 145 225.617, 144.516 227, 143.925 227 C 143.206 227, 142.934 223.116, 143.103 215.250 C 143.301 206.038, 143.070 203.500, 142.032 203.500 C 141.012 203.500, 140.683 206.245, 140.604 215.413 C 140.529 223.976, 140.148 227.445, 139.250 227.747 C 138.465 228.010, 138 227.209, 138 225.592 C 138 224.100, 137.159 222.492, 136 221.768 C 134.406 220.773, 134 219.436, 134 215.186 C 134 210.636, 133.743 209.906, 132.250 210.215 C 131.145 210.443, 130.622 211.300, 130.831 212.538 C 131.014 213.617, 131.404 215.992, 131.698 217.815 C 131.993 219.638, 133.081 221.658, 134.117 222.305 C 136.082 223.532, 136.803 229, 135 229 C 134.450 229, 134 228.408, 134 227.684 C 134 226.960, 132.494 225.035, 130.654 223.405 C 128.813 221.776, 126.772 219.443, 126.118 218.221 C 124.895 215.935, 122 215.145, 122 217.097 C 122 217.701, 124.273 220.238, 127.051 222.736 C 132.383 227.530, 133.137 230.308, 129.673 232.398 C 128.146 233.319, 127.374 232.940, 124.958 230.079 C 122.455 227.116, 121.978 226.895, 121.389 228.430 C 120.741 230.117, 121.151 230.639, 124.904 232.905 C 126.697 233.986, 125.734 236.537, 122.976 238.013 C 121.095 239.019, 120.369 238.662, 116.909 235.025 C 114.748 232.753, 112.534 231.170, 111.990 231.506 C 110.287 232.559, 110.898 233.396, 115.998 237 C 123.425 242.248, 122.713 242.682, 106.289 242.923 C 102.318 242.982, 100.604 243.509, 99.086 245.138 C 97.472 246.871, 96.327 247.173, 93.047 246.733 C 90.821 246.435, 88.730 246.627, 88.400 247.162 C 86.358 250.466, 96.506 249.843, 100.055 246.446 C 102.338 244.260, 103.477 244, 110.773 244 C 117.619 244, 118.844 244.242, 118.362 245.500 C 117.923 246.642, 116.059 247, 110.548 247 C 104.580 247, 102.992 247.351, 101.500 249 C 99.944 250.719, 98.413 251.001, 90.595 251.009 C 81.540 251.018, 81.488 251.004, 78.817 247.759 C 76.533 244.984, 76.037 244.755, 75.473 246.217 C 75.023 247.386, 75.720 248.732, 77.656 250.435 C 80.288 252.750, 81.263 252.939, 90.742 252.968 C 99.919 252.997, 101.113 252.792, 102.232 251 C 103.281 249.320, 104.564 249, 110.241 249 C 114.080 249, 117 249.432, 117 250 C 117 250.550, 114.560 251, 111.577 251 C 107.251 251, 105.552 251.506, 103.182 253.500 C 100.442 255.806, 99.426 256, 90.106 256 C 79.049 256, 79.596 256.243, 73.263 248.522 C 70.792 245.510, 69.748 244.852, 68.856 245.744 C 67.964 246.636, 68.945 248.049, 72.996 251.707 C 79.199 257.307, 80.522 257.725, 92.576 257.882 C 101.040 257.992, 101.810 257.831, 104 255.500 C 105.803 253.581, 107.353 253, 110.674 253 C 113.928 253, 115 253.387, 115 254.561 C 115 255.845, 114.200 256.003, 110.500 255.448 C 106.747 254.885, 106 255.041, 106 256.386 C 106 257.632, 107.026 258, 110.500 258 C 112.975 258, 115 258.450, 115 259 C 115 259.599, 111.026 260, 105.077 260 C 95.866 260, 94.933 260.185, 92.083 262.583 C 89.196 265.013, 88.463 265.149, 79.763 264.874 C 71.463 264.611, 70.476 264.769, 70.159 266.411 C 69.833 268.105, 70.538 268.211, 79.680 267.844 C 88.247 267.500, 89.847 267.153, 91.776 265.224 C 93.792 263.208, 94.981 263, 104.500 263 C 113.472 263, 115 263.234, 115 264.605 C 115 265.871, 114.207 266.118, 111.250 265.774 C 109.188 265.535, 106.852 265.150, 106.059 264.919 C 105.267 264.689, 104.447 265.288, 104.236 266.250 C 103.904 267.767, 104.663 268, 109.927 268 C 113.517 268, 116 268.431, 116 269.054 C 116 269.741, 112.084 270.045, 104.750 269.928 C 95.890 269.785, 93.442 270.039, 93.225 271.123 C 93 272.247, 95.162 272.435, 104.975 272.145 C 115.495 271.834, 117 271.990, 117 273.395 C 117 274.723, 115.731 275, 109.655 275 C 103.515 275, 102.005 275.337, 100.451 277.054 C 98.795 278.884, 97.545 279.088, 89.046 278.916 C 80.345 278.741, 79.500 278.888, 79.500 280.580 C 79.500 282.272, 80.287 282.408, 88.436 282.126 C 96.057 281.863, 97.838 281.463, 100.531 279.409 C 103.232 277.349, 104.796 277, 111.344 277 C 116.076 277, 119 277.405, 119 278.061 C 119 278.752, 117.430 278.887, 114.500 278.448 C 110.384 277.831, 110 277.952, 110 279.867 C 110 281.770, 110.406 281.906, 114.444 281.353 C 116.889 281.018, 119.701 281.058, 120.694 281.443 C 122.423 282.113, 122.420 282.202, 120.630 283.520 C 115.086 287.600, 108.938 294.338, 109.889 295.289 C 110.588 295.988, 112.370 294.692, 115.501 291.210 C 120.521 285.627, 123.317 284.188, 125.548 286.040 C 127.736 287.856, 127.297 288.780, 124.500 288.245 C 122.614 287.884, 122 288.191, 122 289.495 C 122 290.932, 122.596 291.111, 125.544 290.558 C 132.688 289.218, 135.380 292.163, 129.946 295.373 C 128.266 296.365, 127.057 297.671, 127.259 298.276 C 128.024 300.572, 129.782 299.942, 132.099 296.540 C 133.419 294.600, 135.036 293.011, 135.691 293.007 C 138.056 292.993, 137.983 294.916, 135.516 297.577 C 134.132 299.070, 133 301.070, 133 302.021 C 133 302.972, 132.719 305.156, 132.375 306.875 C 131.888 309.311, 132.095 310, 133.316 310 C 135.647 310, 136.102 308.590, 134.890 305.114 C 133.919 302.330, 134.107 301.635, 136.652 298.572 C 141.209 293.088, 142.264 293.831, 141.853 302.232 C 141.547 308.511, 141.733 309.510, 143.264 309.808 C 144.864 310.120, 144.967 309.494, 144.370 303.076 C 143.798 296.911, 143.924 296, 145.356 296 C 146.696 296, 147 297.095, 147 301.923 C 147 306.856, 147.439 308.368, 149.622 310.962 C 151.851 313.611, 152.146 314.682, 151.597 318.117 C 151.038 321.616, 151.186 322.111, 152.705 321.818 C 155.429 321.294, 154.559 313.259, 151.420 309.945 C 149.442 307.858, 149 306.350, 149 301.695 C 149 297.174, 149.325 296, 150.578 296 C 151.794 296, 152.081 296.862, 151.828 299.750 C 151.588 302.494, 151.885 303.500, 152.935 303.500 C 153.927 303.500, 154.391 302.290, 154.435 299.588 C 154.475 297.166, 155.035 295.496, 155.905 295.203 C 157.073 294.810, 157.212 296.364, 156.732 304.424 C 156.220 313.002, 156.339 314.081, 157.770 313.806 C 159.078 313.554, 159.342 312.348, 159.150 307.497 C 159.020 304.199, 158.669 300.100, 158.371 298.390 C 157.611 294.022, 160.034 293.382, 163.528 297.029 C 165.978 299.586, 166.215 300.413, 165.661 304.453 C 165.107 308.496, 165.253 309, 166.972 309 C 168.713 309, 168.845 308.485, 168.295 303.842 C 167.940 300.846, 166.912 297.912, 165.842 296.842 C 163.489 294.489, 163.517 293.329, 165.958 292.022 C 167.539 291.176, 168.124 291.362, 168.993 292.987 C 170.219 295.278, 173 295.708, 173 293.607 C 173 292.841, 172.325 291.955, 171.500 291.638 C 169.748 290.966, 169.476 289, 171.135 289 C 173.193 289, 176.857 293.831, 176.329 295.849 C 175.745 298.082, 177.700 299.700, 179.186 298.214 C 180.650 296.750, 179.320 293.472, 175.988 290.327 C 173.766 288.230, 173.350 287.283, 174.201 286.258 C 175.104 285.170, 175.791 285.370, 177.905 287.334 C 179.389 288.713, 182.353 290.024, 184.828 290.397 C 188.618 290.968, 189.114 290.829, 188.815 289.279 C 188.549 287.898, 187.673 287.578, 184.829 287.823 C 181.149 288.140, 177 285.814, 177 283.433 C 177 281.383, 181.006 278.502, 182.409 279.542 C 190.764 285.738, 194 286.826, 194 283.441 C 194 282.524, 192.965 282, 191.155 282 C 189.580 282, 187.502 281.107, 186.500 280 C 185.505 278.900, 183.860 278, 182.845 278 C 181.830 278, 181 277.325, 181 276.500 C 181 275.261, 182.843 275, 191.590 275 C 201.122 275, 202.348 275.209, 203.870 277.088 C 205.741 279.398, 214.792 281.608, 216.281 280.119 C 217.671 278.729, 214.966 277.578, 210.988 277.865 C 208.429 278.050, 206.894 277.540, 205.555 276.061 C 203.942 274.278, 202.507 274, 194.927 274 C 185.875 274, 183 273.477, 183 271.830 C 183 271.238, 192.542 270.993, 208.001 271.187 C 229.697 271.459, 233.002 271.302, 233.002 270 C 233.002 268.699, 229.758 268.543, 208.501 268.828 C 185.864 269.131, 184 269.025, 184 267.435 C 184 265.905, 184.887 265.775, 192 266.263 C 199.170 266.754, 200 266.629, 200 265.056 C 200 263.498, 199.171 263.354, 192.654 263.772 C 186.375 264.175, 185.212 263.995, 184.651 262.533 C 184.074 261.029, 184.488 260.907, 188.091 261.515 C 191.727 262.130, 192.147 262, 191.830 260.358 C 191.543 258.868, 190.728 258.574, 187.625 258.841 C 184.759 259.088, 183.888 258.831, 184.217 257.836 C 184.501 256.975, 186.732 256.392, 190.492 256.195 C 196.286 255.893, 196.362 255.925, 201.413 260.858 C 206.500 265.825, 206.500 265.825, 214.500 266.162 C 221.094 266.441, 222.500 266.236, 222.500 265 C 222.500 263.770, 221.176 263.565, 215.145 263.859 C 207.791 264.219, 207.791 264.219, 203.145 259.655 C 198.635 255.224, 198.298 255.082, 191.580 254.795 C 187.156 254.607, 184.510 254.049, 184.246 253.250 C 183.937 252.315, 185.995 252, 192.408 252 C 199.900 252, 201.141 252.253, 202.232 254 C 203.393 255.859, 204.542 255.997, 218.491 255.962 C 233.500 255.924, 233.500 255.924, 238.888 250.899 C 242.747 247.300, 243.969 245.569, 243.195 244.795 C 242.421 244.021, 240.651 245.314, 236.957 249.357 C 231.799 255, 231.799 255, 218.574 255 C 205.760 255, 205.276 254.922, 203 252.500 C 200.839 250.200, 199.947 250, 191.826 250 C 182.096 250, 180.023 248.636, 188.250 247.648 C 198.342 246.436, 201.467 246.803, 204 249.500 C 206.247 251.892, 206.858 252, 218.105 252 C 228.585 252, 230.244 251.756, 233.388 249.750 C 236.943 247.483, 237.852 245.645, 235.990 244.494 C 235.435 244.151, 233.820 245.249, 232.401 246.935 C 229.822 250, 229.822 250, 218.585 250 C 207.892 250, 207.235 249.879, 205 247.500 C 202.777 245.134, 202.076 245, 191.885 245 C 185.612 245, 180.854 244.572, 180.485 243.975 C 180.136 243.412, 180.222 243.015, 180.676 243.094 C 182.649 243.436, 184.036 242.841, 186.927 240.408 C 189.579 238.176, 190.739 237.871, 195.254 238.217 C 198.139 238.437, 201.148 238.816, 201.941 239.059 C 202.743 239.305, 203.551 238.725, 203.764 237.750 C 204.103 236.199, 203.250 236, 196.248 236 C 189.115 236, 188.121 236.243, 186 238.500 C 184.558 240.035, 182.549 241, 180.794 241 C 177.437 241, 175.818 238.241, 178.346 236.827 C 179.255 236.317, 180 235.248, 180 234.450 C 180 232.538, 177.099 232.578, 176.362 234.500 C 175.590 236.510, 173 236.419, 173 234.382 C 173 232.832, 178.692 227.049, 180.250 227.016 C 181.467 226.990, 181.106 224, 179.886 224 C 179.273 224, 177.085 225.901, 175.024 228.223 C 171.529 232.162, 171.098 232.366, 168.638 231.245 C 165.386 229.763, 165.348 228.735, 168.393 224.683 C 169.709 222.932, 171.105 219.546, 171.496 217.157 C 172.133 213.269, 172.013 212.852, 170.354 213.178 C 168.852 213.474, 168.559 214.301, 168.813 217.538 C 169.066 220.768, 168.636 221.994, 166.563 223.941 C 165.153 225.265, 164 226.972, 164 227.733 C 164 228.495, 163.550 228.840, 163 228.500 C 162.450 228.160, 162 223.928, 162 219.096 C 162 211.580, 161.711 210.048, 160 208.500 C 158.759 207.377, 158 205.420, 158 203.345 C 158 200.936, 157.549 200, 156.389 200 C 154.142 200, 155.394 206.897, 158.051 209.160 C 159.686 210.553, 160 212.125, 160 218.910 C 160 223.637, 159.584 227, 159 227 C 158.439 227, 158 224.237, 158 220.712 C 158 214.469, 157.964 214.390, 152.909 209.462 C 147.818 204.500, 147.818 204.500, 148.289 198.311 C 148.640 193.703, 148.416 191.990, 147.412 191.605 C 146.671 191.320, 145.827 191.471, 145.537 191.941 M 394.195 199.494 C 394.572 206.681, 395.003 208.375, 396.995 210.494 C 398.985 212.612, 400.250 213, 405.174 213 C 411 213, 411 213, 411 208.147 C 411 205.477, 410.711 200.527, 410.358 197.147 C 409.715 191, 409.715 191, 401.732 191 C 393.749 191, 393.749 191, 394.195 199.494 M 437 194 C 437 197, 437 197, 445.500 197 C 454 197, 454 197, 454 194 C 454 191, 454 191, 445.500 191 C 437 191, 437 191, 437 194 M 526 195 C 526 199, 526 199, 530.250 198.989 C 532.587 198.983, 536.188 198.699, 538.250 198.358 C 541.719 197.785, 542 197.486, 542 194.369 C 542 191, 542 191, 534 191 C 526 191, 526 191, 526 195 M 629.750 191.716 C 627.110 192.116, 627 192.367, 627 198.001 C 627 208.979, 630.083 213, 638.500 213 C 644 213, 644 213, 644 202 C 644 191, 644 191, 638.250 191.150 C 635.087 191.232, 631.263 191.487, 629.750 191.716 M 136.343 233.038 C 125.141 238.471, 118.983 248.511, 119.022 261.279 C 119.075 278.868, 132.298 291.968, 150 291.970 C 169.995 291.973, 184.649 273.380, 179.983 253.929 C 175.272 234.292, 154.378 224.290, 136.343 233.038 M 147.036 239.882 C 143.131 240.579, 139 245.624, 139 249.696 C 139 251.016, 137.859 253.153, 136.465 254.445 C 134.012 256.718, 133.939 257.144, 134.215 267.647 C 134.500 278.500, 134.500 278.500, 149.750 278.776 C 165 279.052, 165 279.052, 165 267.093 C 165 256.013, 164.853 255.088, 163 254.500 C 161.694 254.085, 161 252.987, 161 251.334 C 161 246.958, 157.911 241.861, 154.360 240.377 C 152.547 239.620, 150.937 239.059, 150.782 239.132 C 150.627 239.204, 148.941 239.542, 147.036 239.882 M 284.658 243.676 C 284.286 244.048, 284.964 245.398, 286.165 246.676 C 287.909 248.532, 289.399 249, 293.567 249 C 297.404 249, 298.947 249.419, 299.393 250.582 C 299.727 251.452, 300 257.752, 300 264.582 C 300 277, 300 277, 305.972 277 C 311.944 277, 311.944 277, 312.222 263.250 C 312.500 249.500, 312.500 249.500, 318 249.189 C 323.202 248.895, 328 246.322, 328 243.826 C 328 242.843, 285.637 242.696, 284.658 243.676 M 328.802 247.750 C 328.693 250.363, 328.634 254.075, 328.670 256 C 328.706 257.925, 328.795 263.438, 328.868 268.250 C 329 277, 329 277, 346.750 276.985 C 356.512 276.976, 365.073 276.606, 365.774 276.161 C 366.742 275.547, 366.538 274.891, 364.924 273.426 C 363.181 271.845, 360.801 271.410, 351.650 271 C 340.500 270.500, 340.500 270.500, 340.187 267.250 C 339.873 264, 339.873 264, 352.937 264 C 366 264, 366 264, 366 260.530 C 366 257.060, 366 257.060, 353.250 256.780 C 340.500 256.500, 340.500 256.500, 340.500 253 C 340.500 249.555, 340.579 249.490, 345.500 248.838 C 348.250 248.473, 353.505 248.136, 357.179 248.088 C 363.603 248.003, 367 246.565, 367 243.929 C 367 243.390, 359.026 243, 348 243 C 329 243, 329 243, 328.802 247.750 M 370 260 C 370 277, 370 277, 386.453 277 C 402.035 277, 408 276.125, 408 273.839 C 408 273.378, 408.113 272.663, 408.250 272.250 C 408.387 271.837, 402.650 271.275, 395.500 271 C 382.500 270.500, 382.500 270.500, 382.216 259.750 C 381.932 249, 381.932 249, 393.351 249 C 404.384 249, 404.825 248.917, 406.385 246.535 C 407.273 245.180, 408 243.830, 408 243.535 C 408 243.241, 399.450 243, 389 243 C 370 243, 370 243, 370 260 M 411 260 C 411 277, 411 277, 416.500 277 C 422 277, 422 277, 422 270.500 C 422 264, 422 264, 430.500 264 C 439 264, 439 264, 439 270.500 C 439 277, 439 277, 444.500 277 C 450 277, 450 277, 450 260 C 450 243, 450 243, 444.500 243 C 439 243, 439 243, 439 249.356 C 439 255.711, 439 255.711, 431.304 256.293 C 427.071 256.614, 423.246 256.652, 422.804 256.379 C 422.362 256.106, 422 252.984, 422 249.441 C 422 243, 422 243, 416.500 243 C 411 243, 411 243, 411 260 M 452.667 243.667 C 452.300 244.033, 452 251.683, 452 260.667 C 452 277, 452 277, 458 277 C 464 277, 464 277, 464 269 C 464 261.029, 464.636 259.651, 467 262.500 C 467.685 263.325, 468.795 264, 469.467 264 C 470.140 264, 471.505 264.900, 472.500 266 C 473.495 267.100, 474.681 268, 475.136 268 C 475.590 268, 478.332 269.508, 481.231 271.350 C 492.058 278.234, 491 279.459, 491 260.035 C 491 243, 491 243, 485.500 243 C 480 243, 480 243, 480 251 C 480 255.400, 479.602 259, 479.115 259 C 478.629 259, 472.809 255.400, 466.183 251 C 453.344 242.474, 453.678 242.655, 452.667 243.667 M 494 255.760 C 494 268.521, 494 268.521, 498.115 272.760 C 502.230 277, 502.230 277, 517.615 277 C 533 277, 533 277, 533 260 C 533 243, 533 243, 513.500 243 C 494 243, 494 243, 494 255.760 M 536.652 249.750 C 535.841 258.331, 535.842 268.410, 536.653 273.320 C 537.284 277.140, 537.284 277.140, 552.040 276.820 C 564.812 276.543, 567.076 276.247, 568.875 274.616 C 570.018 273.580, 570.712 272.343, 570.417 271.866 C 570.123 271.390, 565.242 271, 559.572 271 C 549.262 271, 549.262 271, 548.642 267.250 C 548.301 265.188, 548.017 258.887, 548.011 253.250 C 548 243, 548 243, 542.645 243 C 537.289 243, 537.289 243, 536.652 249.750 M 571 255.712 C 571 268.424, 571 268.424, 575.208 272.712 C 579.416 277, 579.416 277, 595.208 277 C 611 277, 611 277, 611 260 C 611 243, 611 243, 591 243 C 571 243, 571 243, 571 255.712 M 615.200 244.200 C 613.936 245.464, 613.425 272.339, 614.607 275.418 C 615.132 276.785, 617.846 277, 634.607 277 C 654 277, 654 277, 654 267.448 C 654 257.895, 654 257.895, 648.750 258.198 C 643.500 258.500, 643.500 258.500, 643.233 262.500 C 642.653 271.210, 642.882 271, 633.981 271 C 626 271, 626 271, 626 260 C 626 249, 626 249, 637.865 249 C 648.355 249, 650.036 248.760, 652.365 246.927 C 653.814 245.788, 655 244.438, 655 243.927 C 655 242.469, 616.669 242.731, 615.200 244.200 M 657 244.027 C 657 245.034, 659.263 247.778, 667.750 257.059 C 671.974 261.679, 672 261.754, 672 269.354 C 672 277, 672 277, 677.433 277 C 683.492 277, 684.728 275.590, 683.513 270.061 C 682.479 265.351, 684.036 259.902, 687.395 256.480 C 689.103 254.740, 692.403 251.107, 694.729 248.408 C 698.959 243.500, 698.959 243.500, 692.229 243.185 C 685.500 242.869, 685.500 242.869, 681.864 246.935 C 679.864 249.171, 677.818 251, 677.317 251 C 676.816 251, 674.648 249.200, 672.500 247 C 668.831 243.243, 668.243 243, 662.797 243 C 659.499 243, 657 243.443, 657 244.027 M 145.161 247.547 C 142.671 253.012, 143.412 254, 150 254 C 155.577 254, 156 253.839, 156 251.723 C 156 245.385, 147.617 242.156, 145.161 247.547 M 506 257.195 C 506 264.727, 506.218 265.618, 508.687 268.195 C 510.902 270.508, 512.219 271, 516.187 271 C 521 271, 521 271, 521 260 C 521 249, 521 249, 513.500 249 C 506 249, 506 249, 506 257.195 M 584 257.826 C 584 265.758, 584.234 266.871, 586.314 268.826 C 588.068 270.473, 589.869 271, 593.743 271 C 598.858 271, 598.858 271, 599.179 262.250 C 599.691 248.287, 600.108 249, 591.430 249 C 584 249, 584 249, 584 257.826 M 148.250 260.662 C 146.761 261.263, 146.574 265.619, 148 266.500 C 148.550 266.840, 149 268.216, 149 269.559 C 149 270.902, 149.450 272, 150 272 C 150.550 272, 151 271.121, 151 270.047 C 151 268.973, 151.516 266.961, 152.147 265.577 C 153.032 263.634, 153.004 262.710, 152.025 261.530 C 150.696 259.928, 150.296 259.837, 148.250 260.662 M 365 318 C 365 335, 365 335, 383.500 335 C 398.547 335, 402 334.743, 402 333.622 C 402 330.555, 398.714 329.500, 387.602 329 C 376.500 328.500, 376.500 328.500, 376.180 324.594 C 375.861 320.688, 375.861 320.688, 388.343 321.355 C 401.604 322.064, 402.088 321.914, 401.217 317.356 C 400.851 315.440, 399.944 315.046, 394.572 314.471 C 391.151 314.104, 385.572 313.961, 382.174 314.152 C 375.996 314.500, 375.996 314.500, 375.998 311.309 C 375.999 309.554, 376.337 307.912, 376.750 307.660 C 377.163 307.409, 382.411 306.935, 388.414 306.608 C 396.496 306.168, 399.797 305.588, 401.140 304.373 C 402.137 303.471, 402.712 302.343, 402.417 301.866 C 402.123 301.390, 393.584 301, 383.441 301 C 365 301, 365 301, 365 318 M 406.023 302.250 C 406.036 302.938, 408.950 306.826, 412.499 310.892 C 419.523 318.938, 419.841 317.754, 406.633 332.750 C 404.651 335, 404.651 335, 410.729 335 C 416.493 335, 417.053 334.777, 421.586 330.673 C 426.365 326.346, 426.365 326.346, 430.511 330.673 C 434.540 334.878, 434.835 335, 440.949 335 C 447.241 335, 447.241 335, 443.426 330.250 C 441.328 327.637, 438.075 323.757, 436.197 321.626 C 434.319 319.496, 433.168 317.471, 433.641 317.126 C 436.298 315.189, 446 303.662, 446 302.443 C 446 301.396, 444.746 301, 441.434 301 C 436.136 301, 433.732 302.096, 429.266 306.546 C 426.032 309.768, 426.032 309.768, 421.647 305.384 C 417.506 301.243, 416.951 301, 411.632 301 C 407.781 301, 406.007 301.395, 406.023 302.250 M 449 318 C 449 335, 449 335, 454.500 335 C 460 335, 460 335, 460 330.622 C 460 328.215, 460.563 325.781, 461.250 325.214 C 461.938 324.647, 467.600 324.029, 473.832 323.841 C 487.490 323.430, 488 323.035, 488 312.874 C 488 300.440, 488.966 301, 467.525 301 C 449 301, 449 301, 449 318 M 491 317.912 C 491 334.824, 491 334.824, 507.250 335.164 C 516.188 335.351, 525.059 335.273, 526.964 334.991 C 530.428 334.478, 530.428 334.478, 527.474 331.739 C 524.639 329.110, 524.092 329, 513.874 329 C 503.227 329, 503.227 329, 502.733 325.750 C 502.461 323.962, 502.466 322.114, 502.744 321.643 C 503.023 321.172, 508.931 320.947, 515.875 321.143 C 528.500 321.500, 528.500 321.500, 528.500 318.500 C 528.500 315.655, 528.242 315.466, 523.500 314.838 C 520.750 314.473, 515.043 314.136, 510.817 314.088 C 504.252 314.013, 503.049 313.730, 502.545 312.141 C 501.667 309.375, 502.933 307.014, 505.357 306.895 C 506.536 306.837, 511.325 306.725, 516 306.645 C 522.470 306.534, 525.157 306.054, 527.250 304.635 C 528.763 303.609, 530 302.372, 530 301.885 C 530 301.398, 521.225 301, 510.500 301 C 491 301, 491 301, 491 317.912 M 532 318 C 532 335, 532 335, 538 335 C 544 335, 544 335, 544 330.640 C 544 328.241, 544.288 324.174, 544.641 321.602 C 545.282 316.925, 545.282 316.925, 553.891 325.973 C 562.500 335.022, 562.500 335.022, 568.905 335.011 C 574.896 335.001, 575.215 334.887, 573.846 333.250 C 563.132 320.446, 562.890 319.943, 567.218 319.493 C 568.473 319.362, 570.063 319.198, 570.750 319.128 C 571.648 319.036, 572 316.465, 572 310 C 572 301, 572 301, 552 301 C 532 301, 532 301, 532 318 M 576.166 301.876 C 575.141 302.526, 575.462 303.218, 577.551 304.861 C 579.561 306.443, 581.668 307, 585.635 307 C 591 307, 591 307, 591 321 C 591 335, 591 335, 597 335 C 603 335, 603 335, 603 321 C 603 307, 603 307, 608.845 307 C 614.675 307, 618 305.246, 618 302.171 C 618 300.776, 578.343 300.496, 576.166 301.876 M 460.667 307.667 C 460.300 308.033, 460 310.050, 460 312.148 C 460 316.675, 461.363 317.278, 470.542 316.806 C 476.500 316.500, 476.500 316.500, 476.574 313 C 476.696 307.208, 476.418 307, 468.560 307 C 464.585 307, 461.033 307.300, 460.667 307.667 M 544.184 309.750 C 544.493 312.443, 544.654 312.506, 551.903 312.797 C 559.988 313.121, 561.230 312.597, 560.351 309.233 C 559.808 307.159, 559.202 307, 551.817 307 C 543.867 307, 543.867 307, 544.184 309.750" stroke="none" fill="#575eb3" fill-rule="evenodd"/></svg>